<svg xmlns="http://www.w3.org/2000/svg" xmlns:xlink="http://www.w3.org/1999/xlink" viewBox="0 0 24 24"><path d="M3 4.5 A 1.5 1.5 0 0 0 1.5 6 A 1.5 1.5 0 0 0 3 7.5 A 1.5 1.5 0 0 0 4.5 6 A 1.5 1.5 0 0 0 3 4.5 z M 7 5L7 7L22 7L22 5L7 5 z M 3 10.5 A 1.5 1.5 0 0 0 1.5 12 A 1.5 1.5 0 0 0 3 13.5 A 1.5 1.5 0 0 0 4.5 12 A 1.5 1.5 0 0 0 3 10.5 z M 7 11L7 13L22 13L22 11L7 11 z M 3 16.5 A 1.5 1.5 0 0 0 1.5 18 A 1.5 1.5 0 0 0 3 19.5 A 1.5 1.5 0 0 0 4.5 18 A 1.5 1.5 0 0 0 3 16.5 z M 7 17L7 19L22 19L22 17L7 17 z"/></svg>