<svg xmlns="http://www.w3.org/2000/svg" xmlns:xlink="http://www.w3.org/1999/xlink" viewBox="0 0 24 24" fill="#0B0707">
  <path d="M10 2C8.897 2 8 2.897 8 4L8 6L3 6L3 19C3 20.103 3.897 21 5 21L19 21C20.103 21 21 20.103 21 19L21 6L16 6L16 4C16 2.897 15.103 2 14 2L10 2 z M 10 4L14 4L14 6L10 6L10 4 z M 5 8L19 8L19.001953 19L5 19L5 8 z M 9 10C8.448 10 8 10.448 8 11C8 11.552 8.448 12 9 12C9.552 12 10 11.552 10 11C10 10.448 9.552 10 9 10 z M 15 10C14.448 10 14 10.448 14 11C14 11.552 14.448 12 15 12C15.552 12 16 11.552 16 11C16 10.448 15.552 10 15 10 z" fill="#0B0707" />
</svg>