<svg xmlns="http://www.w3.org/2000/svg" xmlns:xlink="http://www.w3.org/1999/xlink" viewBox="0 0 24 24"><path d="M12 2C6.5 2 2 6.5 2 12C2 17.5 6.5 22 12 22C17.5 22 22 17.5 22 12C22 6.5 17.5 2 12 2 z M 9.1621094 4.5332031L12 5.7246094L14.837891 4.5332031C16.142039 5.0328976 17.289721 5.8560854 18.166016 6.9160156L17.974609 10.078125L19.982422 12.359375C19.91691 13.811489 19.464147 15.165303 18.71875 16.318359L15.644531 17.064453L14.09375 19.710938C13.425002 19.893724 12.724655 20 12 20C11.275345 20 10.574998 19.893724 9.90625 19.710938L8.3554688 17.064453L5.28125 16.318359C4.535853 15.165303 4.0830896 13.811489 4.0175781 12.359375L6.0253906 10.078125L5.8339844 6.9160156C6.7102785 5.8560854 7.8579608 5.0328976 9.1621094 4.5332031 z M 12 8.4296875L8.2421875 11.154297L9.7441406 15.570312L14.255859 15.570312L15.757812 11.154297L12 8.4296875 z"/></svg>