<svg xmlns="http://www.w3.org/2000/svg" xmlns:xlink="http://www.w3.org/1999/xlink" viewBox="0 0 24 24"><path d="M13 2 A 2 2 0 0 0 11 4 A 2 2 0 0 0 13 6 A 2 2 0 0 0 15 4 A 2 2 0 0 0 13 2 z M 10.107422 5.9726562C9.6095354 5.9722882 9.1184197 6.1172552 8.6972656 6.3984375L8.6640625 6.4199219L6.2050781 8.3515625L4.734375 11.292969L6.5234375 12.1875L7.7949219 9.6484375L9.6855469 8.1621094L9.5 8.8007812L8.0625 12.59375L6.7753906 15.71875L8.625 16.480469L9.6699219 13.941406L10.525391 14.109375L8.0644531 20.648438L9.9355469 21.351562L13.003906 13.203125L14.65625 8.9550781L20.035156 12.015625L21.023438 10.277344L15.498047 7.1328125C15.259756 6.9962266 15.001365 6.9005952 14.734375 6.8476562L14.732422 6.8476562L10.605469 6.0214844C10.440464 5.9885658 10.273384 5.9727789 10.107422 5.9726562 z M 5 18 A 2 2 0 0 0 3 20 A 2 2 0 0 0 5 22 A 2 2 0 0 0 7 20 A 2 2 0 0 0 5 18 z"/></svg>